<svg width="34" height="30" viewBox="0 0 34 30" fill="none" xmlns="http://www.w3.org/2000/svg">
<path d="M0 14.8398C0 15.8643 0.830502 16.6948 1.85498 16.6948H7.41991C8.44439 16.6948 9.27489 15.8643 9.27489 14.8398V2.4733C9.27489 1.44883 8.44439 0.618326 7.41991 0.618326H1.85498C0.830502 0.618326 0 1.44883 0 2.4733V14.8398Z" fill="#D9D9D9"/>
<path d="M15.149 21.0231C16.4322 23.8716 16.745 25.8007 16.3856 29.9888C19.1318 30.0829 20.2088 29.6114 21.0231 27.5155C21.6269 24.4796 21.6219 22.8559 21.0231 20.0956C20.4406 18.468 21.0625 18.3743 22.5689 18.5498C25.225 19.0245 26.7148 19.0322 29.3705 18.5498C31.63 18.1482 33.0804 17.9314 33.3896 16.3856C33.6988 14.8398 33.1957 14.1215 32.4621 12.9848C33.0577 12.2117 33.3924 11.7353 33.3896 10.8207C33.3868 9.90613 32.6398 9.44378 31.5346 8.65656C31.7488 7.24212 31.8438 6.80158 31.5346 5.87409C31.046 4.92296 30.6861 4.64883 29.9888 4.32828C30.1027 2.98075 30.298 2.37026 29.6796 1.23665C29.0613 0.103045 28.443 0 27.8247 0H12.9848C11.7482 0 10.2024 1.23665 10.2024 1.54581V15.4581C12.6914 17.2034 13.8007 18.4016 15.149 21.0231Z" fill="#D9D9D9"/>
</svg>
