<svg width="33" height="30" viewBox="0 0 33 30" fill="none" xmlns="http://www.w3.org/2000/svg">
<path d="M0 15.1602C0 14.1357 0.818538 13.3052 1.82825 13.3052H7.31302C8.32274 13.3052 9.14127 14.1357 9.14127 15.1602V27.5267C9.14127 28.5512 8.32274 29.3817 7.31302 29.3817H1.82825C0.818538 29.3817 0 28.5512 0 27.5267V15.1602Z" fill="#D9D9D9"/>
<path d="M14.9307 8.97692C16.1955 6.12842 16.5038 4.19934 16.1496 0.0111989C18.8562 -0.0829275 19.9176 0.388621 20.7202 2.4845C21.3154 5.52037 21.3105 7.14408 20.7202 9.90441C20.1462 11.532 20.7591 11.6257 22.2438 11.4502C24.8616 10.9755 26.33 10.9678 28.9474 11.4502C31.1744 11.8518 32.6039 12.0686 32.9086 13.6144C33.2133 15.1602 32.7175 15.8785 31.9945 17.0152C32.5815 17.7883 32.9114 18.2647 32.9086 19.1793C32.9058 20.0939 32.1696 20.5562 31.0803 21.3434C31.2915 22.7579 31.385 23.1984 31.0803 24.1259C30.5987 25.077 30.2441 25.3512 29.5568 25.6717C29.669 27.0192 29.8615 27.6297 29.2521 28.7633C28.6427 29.897 28.0332 30 27.4238 30H12.7978C11.5789 30 10.0554 28.7633 10.0554 28.4542V14.5419C12.5085 12.7966 13.6019 11.5984 14.9307 8.97692Z" fill="#D9D9D9"/>
</svg>
